<?xml version="1.0" encoding="UTF-8" standalone="no"?>
<!DOCTYPE svg PUBLIC "-//W3C//DTD SVG 1.1//EN"
 "http://www.w3.org/Graphics/SVG/1.1/DTD/svg11.dtd">
<!-- Generated by graphviz version 14.1.3 (20260303.0454)
 -->
<!-- Title: UnsolvedERD Pages: 1 -->
<svg width="867pt" height="620pt"
 viewBox="0.00 0.00 867.00 620.00" xmlns="http://www.w3.org/2000/svg" xmlns:xlink="http://www.w3.org/1999/xlink">
<g id="graph0" class="graph" transform="scale(1 1) rotate(0) translate(25.2 595.24)">
<title>UnsolvedERD</title>
<polygon fill="#201d12" stroke="none" points="-25.2,25.2 -25.2,-595.24 841.4,-595.24 841.4,25.2 -25.2,25.2"/>
<!-- cities -->
<g id="node1" class="node">
<title>cities</title>
<path fill="#f8f5e7" stroke="#f0d86d" stroke-width="1.6" d="M68.84,-289.04C68.84,-289.04 12,-289.04 12,-289.04 6,-289.04 0,-283.04 0,-277.04 0,-277.04 0,-254 0,-254 0,-248 6,-242 12,-242 12,-242 68.84,-242 68.84,-242 74.84,-242 80.84,-248 80.84,-254 80.84,-254 80.84,-277.04 80.84,-277.04 80.84,-283.04 74.84,-289.04 68.84,-289.04"/>
<text xml:space="preserve" text-anchor="middle" x="40.42" y="-269.42" font-family="Arial" font-size="13.00" fill="#201d12">CITIES</text>
<text xml:space="preserve" text-anchor="middle" x="40.42" y="-253.82" font-family="Arial" font-size="13.00" fill="#201d12">PK city_id</text>
</g>
<!-- cases -->
<g id="node2" class="node">
<title>cases</title>
<path fill="#f8f5e7" stroke="#f0d86d" stroke-width="1.6" d="M270.01,-304.64C270.01,-304.64 186.41,-304.64 186.41,-304.64 180.41,-304.64 174.41,-298.64 174.41,-292.64 174.41,-292.64 174.41,-238.4 174.41,-238.4 174.41,-232.4 180.41,-226.4 186.41,-226.4 186.41,-226.4 270.01,-226.4 270.01,-226.4 276.01,-226.4 282.01,-232.4 282.01,-238.4 282.01,-238.4 282.01,-292.64 282.01,-292.64 282.01,-298.64 276.01,-304.64 270.01,-304.64"/>
<text xml:space="preserve" text-anchor="middle" x="228.21" y="-285.02" font-family="Arial" font-size="13.00" fill="#201d12">CASES</text>
<text xml:space="preserve" text-anchor="middle" x="228.21" y="-269.42" font-family="Arial" font-size="13.00" fill="#201d12">PK case_id</text>
<text xml:space="preserve" text-anchor="middle" x="228.21" y="-253.82" font-family="Arial" font-size="13.00" fill="#201d12">UK case_code</text>
<text xml:space="preserve" text-anchor="middle" x="228.21" y="-238.22" font-family="Arial" font-size="13.00" fill="#201d12">status + dates</text>
</g>
<!-- cities&#45;&gt;cases -->
<g id="edge1" class="edge">
<title>cities&#45;&gt;cases</title>
<path fill="none" stroke="#b5cdda" stroke-width="1.2" d="M81.63,-265.52C81.63,-265.52 165.08,-265.52 165.08,-265.52"/>
<polygon fill="#b5cdda" stroke="#b5cdda" stroke-width="1.2" points="165.08,-267.97 172.08,-265.52 165.08,-263.07 165.08,-267.97"/>
<text xml:space="preserve" text-anchor="middle" x="122.4" y="-268.52" font-family="Arial" font-size="10.00" fill="#f8f5e7">1 : N</text>
</g>
<!-- victims -->
<g id="node4" class="node">
<title>victims</title>
<path fill="#f8f5e7" stroke="#f0d86d" stroke-width="1.6" d="M525.23,-408.84C525.23,-408.84 426.81,-408.84 426.81,-408.84 420.81,-408.84 414.81,-402.84 414.81,-396.84 414.81,-396.84 414.81,-358.2 414.81,-358.2 414.81,-352.2 420.81,-346.2 426.81,-346.2 426.81,-346.2 525.23,-346.2 525.23,-346.2 531.23,-346.2 537.23,-352.2 537.23,-358.2 537.23,-358.2 537.23,-396.84 537.23,-396.84 537.23,-402.84 531.23,-408.84 525.23,-408.84"/>
<text xml:space="preserve" text-anchor="middle" x="476.02" y="-389.22" font-family="Arial" font-size="13.00" fill="#201d12">CASE_VICTIMS</text>
<text xml:space="preserve" text-anchor="middle" x="476.02" y="-373.62" font-family="Arial" font-size="13.00" fill="#201d12">age + occupation</text>
<text xml:space="preserve" text-anchor="middle" x="476.02" y="-358.02" font-family="Arial" font-size="13.00" fill="#201d12">relationship</text>
</g>
<!-- cases&#45;&gt;victims -->
<g id="edge2" class="edge">
<title>cases&#45;&gt;victims</title>
<path fill="none" stroke="#b5cdda" stroke-width="1.2" d="M253.2,-305.37C253.2,-333.82 253.2,-367.08 253.2,-367.08 253.2,-367.08 405.43,-367.08 405.43,-367.08"/>
<polygon fill="#b5cdda" stroke="#b5cdda" stroke-width="1.2" points="405.43,-369.53 412.43,-367.08 405.43,-364.63 405.43,-369.53"/>
<text xml:space="preserve" text-anchor="middle" x="338.75" y="-354.52" font-family="Arial" font-size="10.00" fill="#f8f5e7">1 : N</text>
</g>
<!-- suspects -->
<g id="node6" class="node">
<title>suspects</title>
<path fill="#f8f5e7" stroke="#f0d86d" stroke-width="1.6" d="M789.03,-349.04C789.03,-349.04 677.29,-349.04 677.29,-349.04 671.29,-349.04 665.29,-343.04 665.29,-337.04 665.29,-337.04 665.29,-314 665.29,-314 665.29,-308 671.29,-302 677.29,-302 677.29,-302 789.03,-302 789.03,-302 795.03,-302 801.03,-308 801.03,-314 801.03,-314 801.03,-337.04 801.03,-337.04 801.03,-343.04 795.03,-349.04 789.03,-349.04"/>
<text xml:space="preserve" text-anchor="middle" x="733.16" y="-329.42" font-family="Arial" font-size="13.00" fill="#201d12">CASE_SUSPECTS</text>
<text xml:space="preserve" text-anchor="middle" x="733.16" y="-313.82" font-family="Arial" font-size="13.00" fill="#201d12">alias + link</text>
</g>
<!-- cases&#45;&gt;suspects -->
<g id="edge6" class="edge">
<title>cases&#45;&gt;suspects</title>
<path fill="none" stroke="#b5cdda" stroke-width="1.2" d="M203.2,-305.14C203.2,-316.28 203.2,-325.42 203.2,-325.42 203.2,-325.42 655.88,-325.42 655.88,-325.42"/>
<polygon fill="#b5cdda" stroke="#b5cdda" stroke-width="1.2" points="655.88,-327.87 662.88,-325.42 655.88,-322.97 655.88,-327.87"/>
<text xml:space="preserve" text-anchor="middle" x="476.02" y="-301.52" font-family="Arial" font-size="10.00" fill="#f8f5e7">1 : N</text>
</g>
<!-- witnesses -->
<g id="node7" class="node">
<title>witnesses</title>
<path fill="#f8f5e7" stroke="#f0d86d" stroke-width="1.6" d="M536.78,-490.04C536.78,-490.04 415.26,-490.04 415.26,-490.04 409.26,-490.04 403.26,-484.04 403.26,-478.04 403.26,-478.04 403.26,-455 403.26,-455 403.26,-449 409.26,-443 415.26,-443 415.26,-443 536.78,-443 536.78,-443 542.78,-443 548.78,-449 548.78,-455 548.78,-455 548.78,-478.04 548.78,-478.04 548.78,-484.04 542.78,-490.04 536.78,-490.04"/>
<text xml:space="preserve" text-anchor="middle" x="476.02" y="-470.42" font-family="Arial" font-size="13.00" fill="#201d12">CASE_WITNESSES</text>
<text xml:space="preserve" text-anchor="middle" x="476.02" y="-454.82" font-family="Arial" font-size="13.00" fill="#201d12">statement + reliability</text>
</g>
<!-- cases&#45;&gt;witnesses -->
<g id="edge8" class="edge">
<title>cases&#45;&gt;witnesses</title>
<path fill="none" stroke="#b5cdda" stroke-width="1.2" d="M282.51,-268.42C335.83,-268.42 409.2,-268.42 409.2,-268.42 409.2,-268.42 409.2,-433.41 409.2,-433.41"/>
<polygon fill="#b5cdda" stroke="#b5cdda" stroke-width="1.2" points="406.76,-433.41 409.2,-440.41 411.66,-433.41 406.76,-433.41"/>
<text xml:space="preserve" text-anchor="middle" x="338.75" y="-452.52" font-family="Arial" font-size="10.00" fill="#f8f5e7">1 : N</text>
</g>
<!-- assignments -->
<g id="node9" class="node">
<title>assignments</title>
<path fill="#f8f5e7" stroke="#f0d86d" stroke-width="1.6" d="M549.58,-56.04C549.58,-56.04 402.45,-56.04 402.45,-56.04 396.45,-56.04 390.45,-50.04 390.45,-44.04 390.45,-44.04 390.45,-21 390.45,-21 390.45,-15 396.45,-9 402.45,-9 402.45,-9 549.58,-9 549.58,-9 555.58,-9 561.58,-15 561.58,-21 561.58,-21 561.58,-44.04 561.58,-44.04 561.58,-50.04 555.58,-56.04 549.58,-56.04"/>
<text xml:space="preserve" text-anchor="middle" x="476.02" y="-36.42" font-family="Arial" font-size="13.00" fill="#201d12">CASE_INVESTIGATORS</text>
<text xml:space="preserve" text-anchor="middle" x="476.02" y="-20.82" font-family="Arial" font-size="13.00" fill="#201d12">lead + dates</text>
</g>
<!-- cases&#45;&gt;assignments -->
<g id="edge10" class="edge">
<title>cases&#45;&gt;assignments</title>
<path fill="none" stroke="#b5cdda" stroke-width="1.2" d="M228.2,-225.77C228.2,-163.89 228.2,-51.54 228.2,-51.54 228.2,-51.54 380.88,-51.54 380.88,-51.54"/>
<polygon fill="#b5cdda" stroke="#b5cdda" stroke-width="1.2" points="380.88,-53.99 387.88,-51.54 380.88,-49.09 380.88,-53.99"/>
<text xml:space="preserve" text-anchor="middle" x="338.75" y="-75.52" font-family="Arial" font-size="10.00" fill="#f8f5e7">1 : N</text>
</g>
<!-- evidence -->
<g id="node10" class="node">
<title>evidence</title>
<path fill="#f8f5e7" stroke="#f0d86d" stroke-width="1.6" d="M524.5,-234.84C524.5,-234.84 427.54,-234.84 427.54,-234.84 421.54,-234.84 415.54,-228.84 415.54,-222.84 415.54,-222.84 415.54,-184.2 415.54,-184.2 415.54,-178.2 421.54,-172.2 427.54,-172.2 427.54,-172.2 524.5,-172.2 524.5,-172.2 530.5,-172.2 536.5,-178.2 536.5,-184.2 536.5,-184.2 536.5,-222.84 536.5,-222.84 536.5,-228.84 530.5,-234.84 524.5,-234.84"/>
<text xml:space="preserve" text-anchor="middle" x="476.02" y="-215.22" font-family="Arial" font-size="13.00" fill="#201d12">EVIDENCE</text>
<text xml:space="preserve" text-anchor="middle" x="476.02" y="-199.62" font-family="Arial" font-size="13.00" fill="#201d12">code + discovery</text>
<text xml:space="preserve" text-anchor="middle" x="476.02" y="-184.02" font-family="Arial" font-size="13.00" fill="#201d12">location</text>
</g>
<!-- cases&#45;&gt;evidence -->
<g id="edge11" class="edge">
<title>cases&#45;&gt;evidence</title>
<path fill="none" stroke="#b5cdda" stroke-width="1.2" d="M282.59,-232.03C282.59,-232.03 405.98,-232.03 405.98,-232.03"/>
<polygon fill="#b5cdda" stroke="#b5cdda" stroke-width="1.2" points="405.98,-234.48 412.98,-232.03 405.98,-229.58 405.98,-234.48"/>
<text xml:space="preserve" text-anchor="middle" x="338.75" y="-237.52" font-family="Arial" font-size="10.00" fill="#f8f5e7">1 : N</text>
</g>
<!-- history -->
<g id="node12" class="node">
<title>history</title>
<path fill="#f8f5e7" stroke="#f0d86d" stroke-width="1.6" d="M555,-140.04C555,-140.04 397.04,-140.04 397.04,-140.04 391.04,-140.04 385.04,-134.04 385.04,-128.04 385.04,-128.04 385.04,-105 385.04,-105 385.04,-99 391.04,-93 397.04,-93 397.04,-93 555,-93 555,-93 561,-93 567,-99 567,-105 567,-105 567,-128.04 567,-128.04 567,-134.04 561,-140.04 555,-140.04"/>
<text xml:space="preserve" text-anchor="middle" x="476.02" y="-120.42" font-family="Arial" font-size="13.00" fill="#201d12">CASE_STATUS_HISTORY</text>
<text xml:space="preserve" text-anchor="middle" x="476.02" y="-104.82" font-family="Arial" font-size="13.00" fill="#201d12">archive + reopen</text>
</g>
<!-- cases&#45;&gt;history -->
<g id="edge13" class="edge">
<title>cases&#45;&gt;history</title>
<path fill="none" stroke="#b5cdda" stroke-width="1.2" d="M282.48,-229.21C329.9,-229.21 391.2,-229.21 391.2,-229.21 391.2,-229.21 391.2,-149.51 391.2,-149.51"/>
<polygon fill="#b5cdda" stroke="#b5cdda" stroke-width="1.2" points="393.66,-149.51 391.2,-142.51 388.76,-149.51 393.66,-149.51"/>
<text xml:space="preserve" text-anchor="middle" x="338.75" y="-124.52" font-family="Arial" font-size="10.00" fill="#f8f5e7">1 : N</text>
</g>
<!-- people -->
<g id="node3" class="node">
<title>people</title>
<path fill="#f8f5e7" stroke="#f0d86d" stroke-width="1.6" d="M266.76,-522.04C266.76,-522.04 189.66,-522.04 189.66,-522.04 183.66,-522.04 177.66,-516.04 177.66,-510.04 177.66,-510.04 177.66,-487 177.66,-487 177.66,-481 183.66,-475 189.66,-475 189.66,-475 266.76,-475 266.76,-475 272.76,-475 278.76,-481 278.76,-487 278.76,-487 278.76,-510.04 278.76,-510.04 278.76,-516.04 272.76,-522.04 266.76,-522.04"/>
<text xml:space="preserve" text-anchor="middle" x="228.21" y="-502.42" font-family="Arial" font-size="13.00" fill="#201d12">PEOPLE</text>
<text xml:space="preserve" text-anchor="middle" x="228.21" y="-486.82" font-family="Arial" font-size="13.00" fill="#201d12">PK person_id</text>
</g>
<!-- people&#45;&gt;victims -->
<g id="edge3" class="edge">
<title>people&#45;&gt;victims</title>
<path fill="none" stroke="#b5cdda" stroke-width="1.2" d="M228.2,-474.26C228.2,-441.71 228.2,-387.96 228.2,-387.96 228.2,-387.96 405.31,-387.96 405.31,-387.96"/>
<polygon fill="#b5cdda" stroke="#b5cdda" stroke-width="1.2" points="405.31,-390.41 412.31,-387.96 405.31,-385.51 405.31,-390.41"/>
<text xml:space="preserve" text-anchor="middle" x="338.75" y="-403.52" font-family="Arial" font-size="10.00" fill="#f8f5e7">1 : N</text>
</g>
<!-- suspect_profiles -->
<g id="node5" class="node">
<title>suspect_profiles</title>
<path fill="#f8f5e7" stroke="#f0d86d" stroke-width="1.6" d="M542,-570.04C542,-570.04 410.04,-570.04 410.04,-570.04 404.04,-570.04 398.04,-564.04 398.04,-558.04 398.04,-558.04 398.04,-535 398.04,-535 398.04,-529 404.04,-523 410.04,-523 410.04,-523 542,-523 542,-523 548,-523 554,-529 554,-535 554,-535 554,-558.04 554,-558.04 554,-564.04 548,-570.04 542,-570.04"/>
<text xml:space="preserve" text-anchor="middle" x="476.02" y="-550.42" font-family="Arial" font-size="13.00" fill="#201d12">SUSPECT_PROFILES</text>
<text xml:space="preserve" text-anchor="middle" x="476.02" y="-534.82" font-family="Arial" font-size="13.00" fill="#201d12">criminal history</text>
</g>
<!-- people&#45;&gt;suspect_profiles -->
<g id="edge4" class="edge">
<title>people&#45;&gt;suspect_profiles</title>
<path fill="none" stroke="#b5cdda" stroke-width="1.2" d="M228.2,-522.8C228.2,-534.71 228.2,-546.52 228.2,-546.52 228.2,-546.52 388.45,-546.52 388.45,-546.52"/>
<polygon fill="#b5cdda" stroke="#b5cdda" stroke-width="1.2" points="388.45,-548.97 395.45,-546.52 388.45,-544.07 388.45,-548.97"/>
<text xml:space="preserve" text-anchor="middle" x="338.75" y="-550.52" font-family="Arial" font-size="10.00" fill="#f8f5e7">1 : 0..1</text>
</g>
<!-- people&#45;&gt;witnesses -->
<g id="edge7" class="edge">
<title>people&#45;&gt;witnesses</title>
<path fill="none" stroke="#b5cdda" stroke-width="1.2" d="M279.26,-482.52C279.26,-482.52 393.66,-482.52 393.66,-482.52"/>
<polygon fill="#b5cdda" stroke="#b5cdda" stroke-width="1.2" points="393.66,-484.97 400.66,-482.52 393.66,-480.07 393.66,-484.97"/>
<text xml:space="preserve" text-anchor="middle" x="338.75" y="-501.52" font-family="Arial" font-size="10.00" fill="#f8f5e7">1 : N</text>
</g>
<!-- suspect_profiles&#45;&gt;suspects -->
<g id="edge5" class="edge">
<title>suspect_profiles&#45;&gt;suspects</title>
<path fill="none" stroke="#b5cdda" stroke-width="1.2" d="M554.58,-546.52C630.21,-546.52 733.2,-546.52 733.2,-546.52 733.2,-546.52 733.2,-358.41 733.2,-358.41"/>
<polygon fill="#b5cdda" stroke="#b5cdda" stroke-width="1.2" points="735.66,-358.41 733.2,-351.41 730.76,-358.41 735.66,-358.41"/>
<text xml:space="preserve" text-anchor="middle" x="608.56" y="-448.52" font-family="Arial" font-size="10.00" fill="#f8f5e7">1 : N</text>
</g>
<!-- investigators -->
<g id="node8" class="node">
<title>investigators</title>
<path fill="#f8f5e7" stroke="#f0d86d" stroke-width="1.6" d="M280.46,-47.04C280.46,-47.04 175.96,-47.04 175.96,-47.04 169.96,-47.04 163.96,-41.04 163.96,-35.04 163.96,-35.04 163.96,-12 163.96,-12 163.96,-6 169.96,0 175.96,0 175.96,0 280.46,0 280.46,0 286.46,0 292.46,-6 292.46,-12 292.46,-12 292.46,-35.04 292.46,-35.04 292.46,-41.04 286.46,-47.04 280.46,-47.04"/>
<text xml:space="preserve" text-anchor="middle" x="228.21" y="-27.42" font-family="Arial" font-size="13.00" fill="#201d12">INVESTIGATORS</text>
<text xml:space="preserve" text-anchor="middle" x="228.21" y="-11.82" font-family="Arial" font-size="13.00" fill="#201d12">specialty</text>
</g>
<!-- investigators&#45;&gt;assignments -->
<g id="edge9" class="edge">
<title>investigators&#45;&gt;assignments</title>
<path fill="none" stroke="#b5cdda" stroke-width="1.2" d="M293,-28.02C293,-28.02 380.88,-28.02 380.88,-28.02"/>
<polygon fill="#b5cdda" stroke="#b5cdda" stroke-width="1.2" points="380.88,-30.47 387.88,-28.02 380.88,-25.57 380.88,-30.47"/>
<text xml:space="preserve" text-anchor="middle" x="338.75" y="-26.52" font-family="Arial" font-size="10.00" fill="#f8f5e7">1 : N</text>
</g>
<!-- analyses -->
<g id="node11" class="node">
<title>analyses</title>
<path fill="#f8f5e7" stroke="#f0d86d" stroke-width="1.6" d="M804.2,-227.04C804.2,-227.04 662.12,-227.04 662.12,-227.04 656.12,-227.04 650.12,-221.04 650.12,-215.04 650.12,-215.04 650.12,-192 650.12,-192 650.12,-186 656.12,-180 662.12,-180 662.12,-180 804.2,-180 804.2,-180 810.2,-180 816.2,-186 816.2,-192 816.2,-192 816.2,-215.04 816.2,-215.04 816.2,-221.04 810.2,-227.04 804.2,-227.04"/>
<text xml:space="preserve" text-anchor="middle" x="733.16" y="-207.42" font-family="Arial" font-size="13.00" fill="#201d12">FORENSIC_ANALYSES</text>
<text xml:space="preserve" text-anchor="middle" x="733.16" y="-191.82" font-family="Arial" font-size="13.00" fill="#201d12">DNA / digital / others</text>
</g>
<!-- evidence&#45;&gt;analyses -->
<g id="edge12" class="edge">
<title>evidence&#45;&gt;analyses</title>
<path fill="none" stroke="#b5cdda" stroke-width="1.2" d="M537.28,-203.52C537.28,-203.52 640.7,-203.52 640.7,-203.52"/>
<polygon fill="#b5cdda" stroke="#b5cdda" stroke-width="1.2" points="640.7,-205.97 647.7,-203.52 640.7,-201.07 640.7,-205.97"/>
<text xml:space="preserve" text-anchor="middle" x="608.56" y="-206.52" font-family="Arial" font-size="10.00" fill="#f8f5e7">1 : N</text>
</g>
</g>
</svg>
